<?xml version="1.0" encoding="utf-8"?>
<!-- Generator: Adobe Illustrator 24.1.2, SVG Export Plug-In . SVG Version: 6.00 Build 0)  -->
<svg version="1.1" id="Layer_2_copy_3" xmlns="http://www.w3.org/2000/svg" xmlns:xlink="http://www.w3.org/1999/xlink" x="0px"
	 y="0px" viewBox="0 0 402 153" style="enable-background:new 0 0 402 153;" xml:space="preserve">
<style type="text/css">
	.st0{fill:#FFFFFF;}
	.st1{fill:#EF7D00;stroke:#FFFFFF;}
</style>
<g>
	<rect x="1" y="18.2" class="st0" width="400" height="102"/>
	<path class="st1" d="M351,76.8c0,41.6-33.2,75.3-74.1,75.3c-40.9,0-74.1-33.7-74.1-75.3c0-41.6,33.2-75.3,74.1-75.3
		C317.9,1.5,351,35.2,351,76.8z"/>
	<g>
		<path d="M18.9,51.1c0-14.9,9.5-22,22.6-22c11.9,0,22.6,4.4,22.6,18.7v8.5H47.4v-7.6c0-3.8-1.6-6-5.5-6c-4.7,0-5.4,4.6-5.4,7v37.7
			c0,2,0,7,5.1,7c3.9,0,5.6-1.8,5.6-5.7v-9.8H41V64.5h23.2v42H48.8v-6.2h-0.2c-3.1,5.2-7.3,7.4-13.5,7.4c-12.6,0-16.1-10.5-16.1-22
			V51.1z"/>
		<path d="M71.8,61.7c0-7.2,3.7-17.4,20.1-17.4c16.4,0,20.1,10.2,20.1,17.4v16.8H88.2v13.1c0,2.1,0,5,3.7,5c3.7,0,3.7-2.9,3.7-5
			v-7.6H112v6.5c0,7.2-3.7,17.4-20.1,17.4c-16.4,0-20.1-10.2-20.1-17.4V61.7z M88.2,67.2h7.4v-6.7c0-2.1,0-5-3.7-5
			c-3.7,0-3.7,2.9-3.7,5V67.2z"/>
		<path d="M120.7,58h-4.1V46.2h4.1V32.9h16.4v13.3h4.1V58h-4.1v32.6c0,1.5,0,4.7,2.2,4.7h2.1v12.4h-7.9c-7.1,0-12.8-1.4-12.8-11V58z
			"/>
		<path d="M163.3,30.3h17.5v28.5H191V30.3h17.5v76.2H191V74.1h-10.1v32.4h-17.5V30.3z"/>
		<path d="M216.2,61.7c0-7.2,3.7-17.4,20.1-17.4c16.4,0,20.1,10.2,20.1,17.4v16.8h-23.8v13.1c0,2.1,0,5,3.7,5c3.7,0,3.7-2.9,3.7-5
			v-7.6h16.4v6.5c0,7.2-3.7,17.4-20.1,17.4c-16.4,0-20.1-10.2-20.1-17.4V61.7z M232.6,67.2h7.4v-6.7c0-2.1,0-5-3.7-5
			c-3.7,0-3.7,2.9-3.7,5V67.2z"/>
		<path d="M304.1,106.5H289v-4.7h-0.2c-2.5,3.7-7.1,5.9-11.6,5.9c-12,0-13.4-8.8-13.4-18.6c0-11.4,6.4-15.3,12.4-17.9
			c6.1-2.6,12-4,12-10.6c0-3.2-0.8-5.1-3.8-5.1c-3,0-4.2,1.6-4.2,4.2v5H265v-5.5c0-9,8-14.9,19.3-14.9c14.8,0,19.8,5.9,19.8,19.1
			V106.5z M288.3,75.9l-4.6,3.3c-1.9,1.4-2.9,3.1-2.9,5.4v8.1c0,3.4,1.3,4.9,3.6,4.9c2.6,0,3.8-2.4,3.8-5.3V75.9z"/>
		<path d="M311.6,45.5h15.5v10.8h0.2c2.3-5.6,4.3-12,11.7-12v19.8h-3.8c-5.6,0-7.2,3.5-7.2,7.7v34.6h-16.4V45.5z"/>
		<path d="M383.6,106.5h-16.4v-6.1H367c-2,4.7-6.1,7.3-11.4,7.3c-7.7,0-12.2-6.8-12.2-18.2V59.7c0-9.7,3.9-15.4,11.9-15.4
			c5.9,0,9.3,2.1,11.7,6.8h0.2V30.3h16.4V106.5z M367.2,64.4c0-3.7-0.8-7.7-4.2-7.7c-1.5,0-3.2,1.2-3.2,3.7v30.9c0,3.1,1.6,4,3.2,4
			c4.2,0,4.2-5.7,4.2-9.9V64.4z"/>
	</g>
</g>
</svg>
